<svg width="350" height="100" viewBox="0 0 350 100" fill="none" xmlns="http://www.w3.org/2000/svg">
<g clip-path="url(#clip0_51_18)">
<path d="M4.36 90V10.8H19.6V90H4.36ZM14.2 90V77.52H63.52V90H14.2ZM14.2 55.56V44.04H57.64V55.56H14.2ZM14.2 23.28V10.8H63.28V23.28H14.2ZM77.6022 90V10.8H108.202C112.362 10.8 116.162 11.16 119.602 11.88C123.122 12.52 126.202 13.48 128.842 14.76C131.562 16.04 133.842 17.64 135.682 19.56C137.522 21.4 138.922 23.56 139.882 26.04C140.842 28.44 141.322 31.12 141.322 34.08C141.322 36.88 140.882 39.44 140.002 41.76C139.122 44 137.802 45.96 136.042 47.64C134.362 49.32 132.202 50.72 129.562 51.84C127.002 52.88 124.002 53.64 120.562 54.12V55.68C124.242 56.16 127.242 57.08 129.562 58.44C131.962 59.8 133.882 61.68 135.322 64.08C136.762 66.48 138.002 69.56 139.042 73.32L143.842 90H127.162L123.442 74.64C122.722 71.44 121.602 68.88 120.082 66.96C118.642 65.04 116.802 63.68 114.562 62.88C112.322 62.08 109.602 61.68 106.402 61.68H92.7222V90H77.6022ZM92.7222 50.04H107.122C113.122 50.04 117.682 48.92 120.802 46.68C124.002 44.44 125.602 41 125.602 36.36C125.602 31.72 124.082 28.28 121.042 26.04C118.082 23.8 113.522 22.68 107.362 22.68H92.7222V50.04ZM157.876 90V10.8H173.236V90H157.876ZM227.257 91.56C221.257 91.56 215.897 90.72 211.177 89.04C206.457 87.28 202.457 84.72 199.177 81.36C195.897 77.92 193.377 73.68 191.617 68.64C189.857 63.6 188.977 57.84 188.977 51.36C188.977 44.64 189.857 38.68 191.617 33.48C193.457 28.28 196.017 23.88 199.297 20.28C202.577 16.6 206.497 13.84 211.057 12C215.617 10.16 220.697 9.24 226.297 9.24C230.617 9.24 234.617 9.8 238.297 10.92C241.977 12.04 245.137 13.72 247.777 15.96C250.497 18.12 252.617 20.76 254.137 23.88C255.657 26.92 256.457 30.4 256.537 34.32L242.377 38.04C242.457 34.44 241.697 31.44 240.097 29.04C238.497 26.64 236.417 24.84 233.857 23.64C231.377 22.44 228.697 21.84 225.817 21.84C223.257 21.84 220.697 22.36 218.137 23.4C215.657 24.44 213.417 26.08 211.417 28.32C209.417 30.56 207.817 33.52 206.617 37.2C205.417 40.8 204.817 45.24 204.817 50.52C204.817 57.24 205.777 62.68 207.697 66.84C209.697 71 212.417 74.08 215.857 76.08C219.377 78 223.337 78.96 227.737 78.96C232.217 78.96 235.777 78.08 238.417 76.32C241.057 74.48 242.977 72.08 244.177 69.12C245.377 66.08 246.057 62.8 246.217 59.28L259.537 61.56C259.457 65.72 258.817 69.64 257.617 73.32C256.417 77 254.537 80.2 251.977 82.92C249.497 85.64 246.217 87.76 242.137 89.28C238.057 90.8 233.097 91.56 227.257 91.56ZM272.954 90V10.8H288.074V47.04C292.234 45.36 296.194 43.24 299.954 40.68C303.714 38.04 307.114 35.12 310.154 31.92C313.274 28.64 315.914 25.24 318.074 21.72C320.314 18.12 321.954 14.48 322.994 10.8H340.274C338.994 14.96 337.154 19.04 334.754 23.04C332.354 26.96 329.554 30.64 326.354 34.08C323.234 37.44 319.914 40.44 316.394 43.08C312.874 45.64 309.354 47.72 305.834 49.32V50.88C309.594 50.96 312.954 51.44 315.914 52.32C318.954 53.2 321.674 54.6 324.074 56.52C326.474 58.36 328.594 60.68 330.434 63.48C332.274 66.28 333.914 69.6 335.354 73.44L341.354 90H324.194L320.354 76.92C318.914 72.6 317.194 69.12 315.194 66.48C313.194 63.84 310.594 61.88 307.394 60.6C304.194 59.32 300.114 58.68 295.154 58.68H288.074V90H272.954Z" fill="url(#paint0_linear_51_18)"/>
</g>
<defs>
<linearGradient id="paint0_linear_51_18" x1="0.999998" y1="90" x2="340" y2="17" gradientUnits="userSpaceOnUse">
<stop stop-color="#8E80FF"/>
<stop offset="1" stop-color="#76AAF8"/>
</linearGradient>
<clipPath id="clip0_51_18">
<rect width="350" height="100" fill="white"/>
</clipPath>
</defs>
</svg>
